HIERARCHY
ROOT joint_Root
{
	OFFSET 0.0 0.0 0.0
	CHANNELS 6 Xposition Yposition Zposition Zrotation Xrotation Yrotation 
	JOINT Hips
	{
		OFFSET 4.5925 91.4895 -427.239
		CHANNELS 6 Xposition Yposition Zposition Zrotation Xrotation Yrotation 
		JOINT Spine
		{
			OFFSET 15.7357 0.0 0.0
			CHANNELS 6 Xposition Yposition Zposition Zrotation Xrotation Yrotation 
			JOINT Chest
			{
				OFFSET 8.98455 -0.406207 0.0
				CHANNELS 6 Xposition Yposition Zposition Zrotation Xrotation Yrotation 
				JOINT Neck
				{
					OFFSET 16.3773 0.0 0.0
					CHANNELS 6 Xposition Yposition Zposition Zrotation Xrotation Yrotation 
					JOINT Head
					{
						OFFSET 6.45672 0.0 0.0
						CHANNELS 6 Xposition Yposition Zposition Zrotation Xrotation Yrotation 
						End Site
						{
							OFFSET 0.0 0.0 0.0
						}
					}
				}
				JOINT Shoulder_L
				{
					OFFSET 12.9942 -0.242716 4.98039
					CHANNELS 6 Xposition Yposition Zposition Zrotation Xrotation Yrotation 
					JOINT UpperArm_L
					{
						OFFSET 5.34809 0.0 0.0
						CHANNELS 6 Xposition Yposition Zposition Zrotation Xrotation Yrotation 
						JOINT LowerArm_L
						{
							OFFSET 24.3286 1.87007e-05 0.0
							CHANNELS 6 Xposition Yposition Zposition Zrotation Xrotation Yrotation 
							JOINT Hand_L
							{
								OFFSET 22.2916 0.0 0.0
								CHANNELS 6 Xposition Yposition Zposition Zrotation Xrotation Yrotation 
								End Site
								{
									OFFSET 0.0 0.0 0.0
								}
							}
						}
					}
				}
				JOINT Shoulder_R
				{
					OFFSET 12.9945 -0.242716 -4.98039
					CHANNELS 6 Xposition Yposition Zposition Zrotation Xrotation Yrotation 
					JOINT UpperArm_R
					{
						OFFSET -5.34813 0.0 0.0
						CHANNELS 6 Xposition Yposition Zposition Zrotation Xrotation Yrotation 
						JOINT LowerArm_R
						{
							OFFSET -24.3289 0.000322201 0.0
							CHANNELS 6 Xposition Yposition Zposition Zrotation Xrotation Yrotation 
							JOINT Hand_R
							{
								OFFSET -22.2915 -0.000108084 0.0
								CHANNELS 6 Xposition Yposition Zposition Zrotation Xrotation Yrotation 
								End Site
								{
									OFFSET 0.0 0.0 0.0
								}
							}
						}
					}
				}
			}
		}
		JOINT UpperLeg_L
		{
			OFFSET -2.19248 -6.46944 0.0
			CHANNELS 6 Xposition Yposition Zposition Zrotation Xrotation Yrotation 
			JOINT LowerLeg_L
			{
				OFFSET 39.0811 0.0 -1.23785e-05
				CHANNELS 6 Xposition Yposition Zposition Zrotation Xrotation Yrotation 
				JOINT Foot_L
				{
					OFFSET 40.9854 0.0 -1.26872e-05
					CHANNELS 6 Xposition Yposition Zposition Zrotation Xrotation Yrotation 
					JOINT Toes_L
					{
						OFFSET 11.7543 0.0 0.0
						CHANNELS 6 Xposition Yposition Zposition Zrotation Xrotation Yrotation 
						End Site
						{
							OFFSET 0.0 0.0 0.0
						}
					}
				}
			}
		}
		JOINT UpperLeg_R
		{
			OFFSET -2.19251 6.46944 0.0
			CHANNELS 6 Xposition Yposition Zposition Zrotation Xrotation Yrotation 
			JOINT LowerLeg_R
			{
				OFFSET -39.0811 -0.00228153 -0.0401928
				CHANNELS 6 Xposition Yposition Zposition Zrotation Xrotation Yrotation 
				JOINT Foot_R
				{
					OFFSET -40.9854 0.0 0.0
					CHANNELS 6 Xposition Yposition Zposition Zrotation Xrotation Yrotation 
					JOINT Toes_R
					{
						OFFSET -11.7543 0.0 0.0
						CHANNELS 6 Xposition Yposition Zposition Zrotation Xrotation Yrotation 
						End Site
						{
							OFFSET 0.0 0.0 0.0
						}
					}
				}
			}
		}
	}
}
MOTION
Frames:	6
Frame Time:	0.0333333
0.000000 0.000000 0.000000 0.000000 0.000000 -0.000000 -0.193687 91.658800 1.363390 89.304600 -4.403200 1.085960 15.735700 0.000005 -0.000001 81.407400 87.651000 -81.216900 8.984550 -0.406207 -0.000000 -3.119710 -0.719688 0.361582 16.377300 -0.000001 -0.000001 2.996710 -3.317700 2.364270 6.456720 -0.000001 -0.000000 -5.466540 -2.514150 1.076090 12.994200 -0.242716 4.980390 -83.651500 -12.177300 -62.190900 5.348090 -0.000007 -0.000001 -55.317100 -58.152700 -98.209100 24.328600 0.000019 0.000005 21.692500 14.759100 -57.363900 22.291600 -0.000001 0.000005 27.982400 5.476070 -5.598540 12.994500 -0.242716 -4.980390 94.469300 -10.979700 -67.687200 -5.348130 -0.000001 -0.000004 -43.459200 -56.654900 -91.687900 -24.328900 0.000322 -0.000009 6.601230 5.293020 -51.446000 -22.291500 -0.000108 -0.000004 24.006300 5.642790 -14.362800 -2.192480 -6.469440 -0.000000 -176.502000 -13.372800 -4.963630 39.081100 -0.000007 -0.000012 -0.155995 0.333929 25.039800 40.985400 -0.000006 -0.000013 -0.423839 3.527190 -68.813300 11.754300 -0.000000 0.000003 -0.000195 -0.001812 -16.646000 -2.192510 6.469440 -0.000001 176.858000 20.704500 176.408000 -39.081100 -0.002282 -0.040193 0.013437 -0.022388 24.332400 -40.985400 0.000008 0.000006 7.013820 14.619900 -70.644600 -11.754300 -0.000006 -0.000006 -0.000560 -0.008943 -16.937100
0.000000 0.000000 0.000000 0.000000 0.000000 -0.000000 -0.173842 91.684600 1.337040 89.314900 -4.341020 0.978976 15.735700 0.000005 -0.000001 80.982900 87.620700 -80.794100 8.984550 -0.406207 -0.000000 -3.065110 -0.763329 0.357267 16.377300 -0.000001 -0.000001 3.031850 -3.325320 2.329330 6.456720 -0.000001 -0.000000 -5.445450 -2.396440 1.092930 12.994200 -0.242716 4.980390 -83.897600 -11.647100 -62.095300 5.348090 -0.000007 -0.000001 -53.903100 -57.906700 -96.732600 24.328600 0.000019 0.000005 20.952800 14.137700 -57.467400 22.291600 -0.000001 0.000005 27.981300 5.468760 -5.324510 12.994500 -0.242716 -4.980390 94.331100 -10.642700 -67.702000 -5.348130 -0.000001 -0.000004 -42.132400 -56.547800 -90.201000 -24.328900 0.000322 -0.000009 5.783900 4.508330 -52.196300 -22.291500 -0.000108 -0.000004 24.027800 5.635290 -13.744500 -2.192480 -6.469440 -0.000000 -176.517000 -13.620000 -5.030510 39.081100 -0.000007 -0.000012 -0.155718 0.335511 24.897300 40.985400 -0.000006 -0.000013 -0.350563 3.809160 -68.710300 11.754300 -0.000000 0.000003 -0.000212 -0.001945 -16.650800 -2.192510 6.469440 -0.000001 176.854000 20.946300 176.389000 -39.081100 -0.002282 -0.040193 0.013419 -0.022540 24.149100 -40.985400 0.000008 0.000006 7.045610 14.777400 -70.593900 -11.754300 -0.000006 -0.000006 -0.000530 -0.008487 -16.918600
0.000000 0.000000 0.000000 0.000000 0.000000 -0.000000 -0.161632 91.688800 1.336360 89.315900 -4.250070 0.943672 15.735700 0.000005 -0.000001 81.430500 87.575600 -81.249200 8.984550 -0.406207 -0.000000 -2.970270 -0.739203 0.343366 16.377300 -0.000001 -0.000001 3.033490 -3.336620 2.312460 6.456720 -0.000001 -0.000000 -5.473160 -2.308010 1.123560 12.994200 -0.242716 4.980390 -84.180900 -11.144000 -62.197600 5.348090 -0.000007 -0.000001 -51.826400 -57.188000 -93.940300 24.328600 0.000019 0.000005 19.762200 12.900100 -58.144900 22.291600 -0.000001 0.000005 27.962400 5.455900 -4.850700 12.994500 -0.242716 -4.980390 94.055600 -10.051200 -67.890300 -5.348130 -0.000001 -0.000004 -40.250800 -56.082100 -87.618900 -24.328900 0.000322 -0.000009 4.111300 2.997430 -53.983700 -22.291500 -0.000108 -0.000004 24.017000 5.622530 -12.791300 -2.192480 -6.469440 -0.000000 -176.513000 -13.792700 -5.063890 39.081100 -0.000007 -0.000012 -0.152112 0.327998 24.880100 40.985400 -0.000006 -0.000013 -0.285576 4.047780 -68.694900 11.754300 -0.000000 0.000003 -0.000207 -0.001902 -16.649200 -2.192510 6.469440 -0.000001 176.829000 21.141300 176.434000 -39.081100 -0.002282 -0.040193 0.012865 -0.021420 24.031900 -40.985400 0.000008 0.000006 7.028600 14.901700 -70.618500 -11.754300 -0.000006 -0.000006 -0.000525 -0.008418 -16.915800
0.000000 0.000000 0.000000 0.000000 0.000000 -0.000000 -0.152762 91.679400 1.347170 89.354300 -4.054660 1.006980 15.735700 0.000005 -0.000001 82.162500 87.487500 -81.999200 8.984550 -0.406207 -0.000000 -2.787020 -0.700014 0.309609 16.377300 -0.000001 -0.000001 3.051240 -3.332580 2.219320 6.456720 -0.000001 -0.000000 -5.574450 -2.366990 1.226550 12.994200 -0.242716 4.980390 -84.507800 -10.668900 -62.554600 5.348090 -0.000007 -0.000001 -49.732400 -55.788800 -90.016400 24.328600 0.000019 0.000005 18.260500 11.021600 -59.913500 22.291600 -0.000001 0.000005 27.594300 5.440290 -4.295390 12.994500 -0.242716 -4.980390 93.694400 -9.304290 -68.230300 -5.348130 -0.000001 -0.000004 -37.950600 -55.101900 -83.714200 -24.328900 0.000322 -0.000009 2.187550 1.405770 -57.329500 -22.291500 -0.000108 -0.000004 23.510500 5.604910 -11.633900 -2.192480 -6.469440 -0.000000 -176.516000 -13.801700 -5.046620 39.081100 -0.000007 -0.000012 -0.155338 0.334212 24.928600 40.985400 -0.000006 -0.000013 -0.235618 4.253550 -68.703600 11.754300 -0.000000 0.000003 -0.000211 -0.001939 -16.650600 -2.192510 6.469440 -0.000001 176.745000 21.315700 176.546000 -39.081100 -0.002282 -0.040193 0.012728 -0.021114 24.031500 -40.985400 0.000008 0.000006 7.037120 14.889700 -70.707000 -11.754300 -0.000006 -0.000006 -0.000443 -0.007146 -16.864100
0.000000 0.000000 0.000000 0.000000 0.000000 -0.000000 -0.143050 91.653800 1.356100 89.422500 -3.850140 1.215590 15.735700 0.000005 -0.000001 83.050900 87.357300 -82.925100 8.984550 -0.406207 -0.000000 -2.518780 -0.650553 0.237383 16.377300 -0.000001 -0.000001 3.015040 -3.289160 2.187090 6.456720 -0.000001 -0.000000 -5.675560 -2.323080 1.349130 12.994200 -0.242716 4.980390 -84.920700 -10.041000 -62.988200 5.348090 -0.000007 -0.000001 -47.686200 -53.358400 -85.209200 24.328600 0.000019 0.000005 17.384100 9.214760 -62.913000 22.291600 -0.000001 0.000005 27.262100 5.416660 -3.486810 12.994500 -0.242716 -4.980390 93.221200 -8.360020 -68.839600 -5.348130 -0.000001 -0.000004 -35.336100 -53.301600 -78.437100 -24.328900 0.000322 -0.000009 0.884087 0.465031 -62.338000 -22.291500 -0.000108 -0.000004 23.355800 5.585690 -10.520900 -2.192480 -6.469440 -0.000000 -176.541000 -13.755300 -4.912980 39.081100 -0.000007 -0.000012 -0.152186 0.325552 25.055000 40.985400 -0.000006 -0.000013 -0.174983 4.415390 -68.765600 11.754300 -0.000000 0.000003 -0.000207 -0.001906 -16.649400 -2.192510 6.469440 -0.000001 176.570000 21.460500 176.740000 -39.081100 -0.002282 -0.040193 0.012609 -0.020707 24.175900 -40.985400 0.000008 0.000006 7.030790 14.837200 -70.842400 -11.754300 -0.000006 -0.000006 -0.000395 -0.006394 -16.833500
0.000000 0.000000 0.000000 0.000000 0.000000 -0.000000 -0.141338 91.611600 1.358710 89.457300 -3.572690 1.501970 15.735700 0.000005 -0.000001 83.793200 87.196600 -83.699000 8.984550 -0.406207 -0.000000 -2.191710 -0.614197 0.176506 16.377300 -0.000001 -0.000001 2.965160 -3.178210 2.131660 6.456720 -0.000001 -0.000000 -5.781910 -2.371850 1.622890 12.994200 -0.242716 4.980390 -85.470700 -9.155020 -63.532600 5.348090 -0.000007 -0.000001 -45.494800 -49.854700 -79.498400 24.328600 0.000019 0.000005 17.042700 7.546480 -66.809300 22.291600 -0.000001 0.000005 27.535300 5.396700 -2.830990 12.994500 -0.242716 -4.980390 92.640100 -7.057480 -69.429700 -5.348130 -0.000001 -0.000004 -32.603800 -50.389100 -72.321200 -24.328900 0.000322 -0.000009 -0.100708 -0.038623 -68.325200 -22.291500 -0.000108 -0.000004 23.290500 5.571070 -9.741070 -2.192480 -6.469440 -0.000000 -176.479000 -13.759700 -4.787040 39.081100 -0.000007 -0.000012 -0.155280 0.328113 25.326200 40.985400 -0.000006 -0.000013 -0.104419 4.681840 -68.877200 11.754300 -0.000000 0.000003 -0.000224 -0.002037 -16.654100 -2.192510 6.469440 -0.000001 176.390000 21.721900 176.976000 -39.081100 -0.002282 -0.040193 0.008555 -0.011550 24.412300 -40.985400 0.000008 0.000006 6.953830 14.829100 -70.983100 -11.754300 -0.000006 -0.000006 -0.000221 -0.003638 -16.721600
